<svg id="Layer_1" data-name="Layer 1" xmlns="http://www.w3.org/2000/svg" viewBox="0 0 960 540"><defs><style>.cls-1{fill:#fff;}.cls-2{fill:#f7941d;}.cls-3{font-size:36px;font-family:PlayfairDisplay-Bold, Playfair Display;font-weight:700;}.cls-4{letter-spacing:-0.019em;}.cls-5{letter-spacing:-0.007em;}.cls-6{letter-spacing:-0.024em;}.cls-7{letter-spacing:-0.007em;}.cls-8{letter-spacing:-0.011em;}.cls-9{letter-spacing:-0.028em;}.cls-10{letter-spacing:-0.002em;}.cls-11{letter-spacing:-0.004em;}.cls-12{letter-spacing:-0.016em;}.cls-13{letter-spacing:-0.01em;}.cls-14{letter-spacing:-0.023em;}.cls-15{letter-spacing:-0.006em;}.cls-16{letter-spacing:-0.02em;}.cls-17{letter-spacing:-0.023em;}.cls-18{letter-spacing:-0.041em;}.cls-19{letter-spacing:-0.01em;}.cls-20{letter-spacing:0em;}.cls-21{letter-spacing:-0.018em;}.cls-22{letter-spacing:-0.004em;}.cls-23{letter-spacing:-0.015em;}.cls-24{letter-spacing:-0.006em;}.cls-25{letter-spacing:-0.01em;}.cls-26{letter-spacing:-0.018em;}</style></defs><title>Davis&amp;apos;s Idea for NEWS x0.5-01</title><path d="M377.1125,173.6476c-2.5283,0-5.0674-.0737-7.5653-.2428a55.1745,55.1745,0,0,1-7.8378-1.0978V127.2318a66.2663,66.2663,0,0,1,7.0194-.8969c2.529-.211,4.89-.3064,7.0831-.3064a45.8832,45.8832,0,0,1,8.11.6548,18.9641,18.9641,0,0,1,6.37,2.1637,11.3139,11.3139,0,0,1,4.1759,4.0644,12.0065,12.0065,0,0,1,1.5111,6.1963q0,5.574-5.3407,8.7827c2.9483,1.0978,4.9315,2.65,5.9914,4.55a13.2921,13.2921,0,0,1,1.605,6.5027c0,4.8876-1.7836,8.54-5.3089,10.9892C389.3367,172.4443,384.1009,173.6476,377.1125,173.6476Zm-5.2669-28.8184h5.0681c3.2209,0,5.4766-.412,6.8828-1.2351a4.3235,4.3235,0,0,0,2.0569-3.99,4.1141,4.1141,0,0,0-2.12-3.9588,13.7237,13.7237,0,0,0-6.2639-1.14c-.8922,0-1.8472,0-2.8753.0311s-1.92.0744-2.7387.1691C371.8456,134.7058,371.8456,144.8292,371.8456,144.8292Zm0,7.9914v12.0125c.7555.1055,1.5739.169,2.4654.2117s1.8783.0737,2.949.0737a17.894,17.894,0,0,0,7.5335-1.3406,4.97,4.97,0,0,0,2.8753-4.9619,4.8287,4.8287,0,0,0-2.3924-4.5811,13.9343,13.9343,0,0,0-6.8835-1.3724h-6.5372v-.0419Z"/><path d="M413.0506,127.58a5.4783,5.4783,0,0,1-1.7836,4.339,6.2993,6.2993,0,0,1-8.3526,0,5.5708,5.5708,0,0,1-1.7836-4.339,5.4758,5.4758,0,0,1,1.7836-4.3383,6.1264,6.1264,0,0,1,4.1759-1.5834,6.0348,6.0348,0,0,1,4.1767,1.5834A5.5113,5.5113,0,0,1,413.0506,127.58Zm-.9551,45.4872H402.17v-35.3h9.9258Z"/><path d="M417.4362,128.9843l9.9266-1.6152v10.398h11.9408v8.3289H427.3628v12.3933a10.0716,10.0716,0,0,0,1.0909,5.0248c.7136,1.2351,2.2247,1.8891,4.4493,1.8891a18.8319,18.8319,0,0,0,3.2838-.3057,20.9436,20.9436,0,0,0,3.1168-.8238l1.4054,7.78a27.214,27.214,0,0,1-4.0082,1.277,23.5617,23.5617,0,0,1-5.4036.5492,18.1922,18.1922,0,0,1-6.7468-1.0984,10.1027,10.1027,0,0,1-4.2808-3.1033,11.4279,11.4279,0,0,1-2.2246-4.782,29.3351,29.3351,0,0,1-.6507-6.2281V128.9843Z"/><path d="M440.709,155.428a20.8823,20.8823,0,0,1,1.2277-7.1994,16.778,16.778,0,0,1,9.2339-9.8812,18.2909,18.2909,0,0,1,7.5964-1.4779,23.3331,23.3331,0,0,1,5.131.5175,25.6719,25.6719,0,0,1,4.5223,1.446l-2.0562,7.9915a26.362,26.362,0,0,0-3.085-.9294,15.5024,15.5024,0,0,0-3.7356-.4112c-2.9483,0-5.131.9287-6.5683,2.7549a11.3523,11.3523,0,0,0-2.1509,7.2311c0,3.1668.6818,5.6478,2.0143,7.3685,1.3642,1.7518,3.7356,2.6176,7.083,2.6176a22.3244,22.3244,0,0,0,3.8716-.3483,16.3739,16.3739,0,0,0,3.7985-1.066l1.4062,8.1916a23.1047,23.1047,0,0,1-4.3444,1.277,29.2979,29.2979,0,0,1-5.75.5492,21.4947,21.4947,0,0,1-8.2789-1.4461,15.6318,15.6318,0,0,1-5.7181-3.927,14.9871,14.9871,0,0,1-3.2534-5.8588A29.5851,29.5851,0,0,1,440.709,155.428Z"/><path d="M503.2038,155.3644a23.3913,23.3913,0,0,1-1.1959,7.6113,16.3162,16.3162,0,0,1-3.4522,5.89,15.735,15.735,0,0,1-5.4455,3.79,19.2963,19.2963,0,0,1-14.1337,0,15.6882,15.6882,0,0,1-5.4462-3.79,16.9507,16.9507,0,0,1-3.5252-5.89,21.6922,21.6922,0,0,1-1.27-7.6113,21.264,21.264,0,0,1,1.3007-7.5795,16.8842,16.8842,0,0,1,3.5888-5.8162,16.17,16.17,0,0,1,5.4773-3.7579,17.5211,17.5211,0,0,1,6.9147-1.3413,17.7954,17.7954,0,0,1,6.9775,1.3413,15.5963,15.5963,0,0,1,5.4455,3.7579,16.8267,16.8267,0,0,1,3.526,5.8162A22.7673,22.7673,0,0,1,503.2038,155.3644Zm-10.1254,0a12.4591,12.4591,0,0,0-1.8466-7.2629,6.53,6.53,0,0,0-10.5034,0,15.1238,15.1238,0,0,0,0,14.6,6.4257,6.4257,0,0,0,10.5034,0A12.97,12.97,0,0,0,493.0784,155.3644Z"/><path d="M518.0618,127.58a5.4783,5.4783,0,0,1-1.7836,4.339,6.2993,6.2993,0,0,1-8.3526,0,5.5709,5.5709,0,0,1-1.7837-4.339,5.4758,5.4758,0,0,1,1.7837-4.3383,6.1281,6.1281,0,0,1,4.1766-1.5834,6.0344,6.0344,0,0,1,4.176,1.5834A5.5113,5.5113,0,0,1,518.0618,127.58Zm-.9233,45.4872H507.212v-35.3h9.9265Z"/><path d="M522.7836,138.97a53.521,53.521,0,0,1,6.5372-1.3724,54.9671,54.9671,0,0,1,8.383-.6541,20.1554,20.1554,0,0,1,7.4294,1.1715,11.1569,11.1569,0,0,1,4.69,3.3041,12.8936,12.8936,0,0,1,2.466,5.0986,27.7082,27.7082,0,0,1,.7136,6.5764v19.941h-9.9265v-18.737c0-3.2413-.4092-5.51-1.27-6.8511s-2.4343-1.9953-4.7218-1.9953c-.7136,0-1.4691.0318-2.2557.1055s-1.511.1373-2.12.2428v27.2351h-9.9258Z"/><path class="cls-1" d="M580.1473,173.996c-7.5336,0-13.2422-2.1009-17.1767-6.3019s-5.8865-10.1551-5.8865-17.9037A27.764,27.764,0,0,1,558.9,139.4986a21.9356,21.9356,0,0,1,4.9315-7.6431,20.7084,20.7084,0,0,1,7.46-4.7184,26.92,26.92,0,0,1,9.4118-1.6152,28.7231,28.7231,0,0,1,5.3407.443,31.52,31.52,0,0,1,4.2078,1.0031,20.8241,20.8241,0,0,1,3.0112,1.1715c.7873.4119,1.3643.7183,1.7424.9293l-3.012,8.4345a24.5,24.5,0,0,0-4.9625-1.9317,23.082,23.082,0,0,0-6.4324-.7921,14.4361,14.4361,0,0,0-4.69.7921,11.0192,11.0192,0,0,0-4.0711,2.5864,13.26,13.26,0,0,0-2.8435,4.5811,19.444,19.444,0,0,0-1.06,6.8511,26.0059,26.0059,0,0,0,.6818,5.9961,13.1739,13.1739,0,0,0,2.2557,4.782,10.9887,10.9887,0,0,0,4.1029,3.1986,14.349,14.349,0,0,0,6.128,1.1715,29.2,29.2,0,0,0,4.0711-.2746,24.1005,24.1005,0,0,0,3.2209-.6541,18.2948,18.2948,0,0,0,2.4661-.8238c.7136-.3058,1.3643-.623,1.92-.8658l2.8747,8.4033a24.255,24.255,0,0,1-6.19,2.4066A36.6341,36.6341,0,0,1,580.1473,173.996Z"/><path class="cls-1" d="M611.2269,136.8384a23.2108,23.2108,0,0,1,7.3238,1.0024,10.8855,10.8855,0,0,1,4.69,2.8929,10.69,10.69,0,0,1,2.4972,4.5493,22.9619,22.9619,0,0,1,.7136,5.9542v20.7952c-1.4373.3064-3.3887.6866-5.9177,1.0985a58.1452,58.1452,0,0,1-9.2021.654,28.1668,28.1668,0,0,1-6.1591-.6229,13.76,13.76,0,0,1-4.7536-1.9635,9.2291,9.2291,0,0,1-3.0843-3.5781,12.39,12.39,0,0,1-1.06-5.4367,10.4078,10.4078,0,0,1,1.2277-5.2359,9.2129,9.2129,0,0,1,3.2838-3.41,14.3668,14.3668,0,0,1,4.7218-1.858,26.4778,26.4778,0,0,1,5.54-.58c1.3013,0,2.4343.0737,3.42.1684a12.51,12.51,0,0,1,2.4343.4437v-.9294a5.5658,5.5658,0,0,0-1.5421-4.0954c-1.0281-1.0342-2.8016-1.5517-5.3407-1.5517a34.1067,34.1067,0,0,0-4.9944.38,20.7523,20.7523,0,0,0-4.2815,1.0342l-1.2695-8.0544c.5769-.1691,1.3013-.38,2.1509-.58.86-.2117,1.8154-.38,2.8435-.5492s2.0886-.2746,3.2215-.4119C608.8974,136.9121,610.0621,136.8384,611.2269,136.8384Zm.7866,29.23c.997,0,1.92-.0311,2.8016-.0737a13.44,13.44,0,0,0,2.12-.211v-7.5795a18.0168,18.0168,0,0,0-1.8154-.2746,16.4889,16.4889,0,0,0-2.1928-.1367,22.8648,22.8648,0,0,0-2.6338.1684,5.7886,5.7886,0,0,0-2.1509.6548,3.461,3.461,0,0,0-2.0143,3.2723,3.39,3.39,0,0,0,1.5733,3.24A8.08,8.08,0,0,0,612.0135,166.0681Z"/><path class="cls-1" d="M641.8864,165.9a9.4544,9.4544,0,0,0,3.8716-.5492,2.075,2.075,0,0,0,1.1337-2.0691,2.5062,2.5062,0,0,0-1.4691-2.1008,26.035,26.035,0,0,0-4.48-2.0264,39.61,39.61,0,0,1-4.2389-1.8262,11.9157,11.9157,0,0,1-3.2216-2.2382,8.9816,8.9816,0,0,1-2.0561-3.135,11.7128,11.7128,0,0,1-.7136-4.37,9.5039,9.5039,0,0,1,3.6619-7.8541c2.4343-1.9317,5.781-2.8922,10.0625-2.8922a32.9682,32.9682,0,0,1,6.1273.58,28.2518,28.2518,0,0,1,4.6589,1.2351l-1.7417,7.78a32.2321,32.2321,0,0,0-3.7667-1.066,20.7493,20.7493,0,0,0-4.5541-.4856c-3.1161,0-4.6589.8658-4.6589,2.6183a2.5757,2.5757,0,0,0,.21,1.0659,2.3639,2.3639,0,0,0,.7866.8976,10.6405,10.6405,0,0,0,1.6476.9287,23.0759,23.0759,0,0,0,2.6332,1.0977,41.6335,41.6335,0,0,1,5.4043,2.4073,13.3519,13.3519,0,0,1,3.3575,2.5438,8.1854,8.1854,0,0,1,1.7417,3.0295,13.0642,13.0642,0,0,1,.514,3.8953,8.9067,8.9067,0,0,1-3.9034,7.8852c-2.602,1.7951-6.2639,2.6819-11.0168,2.6819a32.3845,32.3845,0,0,1-7.7648-.7921,39.2014,39.2014,0,0,1-4.3126-1.3406l1.6788-8.128a33.7791,33.7791,0,0,0,5.2047,1.5834A21.2959,21.2959,0,0,0,641.8864,165.9Z"/><path class="cls-1" d="M660.4794,173.0673V122.6189l9.9265-1.6152v16.9115a22.8986,22.8986,0,0,1,2.57-.6547,15.426,15.426,0,0,1,3.043-.3064,18.3414,18.3414,0,0,1,7.083,1.1721,11.2612,11.2612,0,0,1,4.5223,3.3041,13.07,13.07,0,0,1,2.3924,5.0986,27.7827,27.7827,0,0,1,.6818,6.5764v19.941h-9.9259V154.2985c0-3.2413-.4092-5.51-1.2276-6.8511s-2.3613-1.9953-4.5541-1.9953a11.7718,11.7718,0,0,0-2.4972.2428,18.9632,18.9632,0,0,0-2.088.5174v26.8232h-9.9265Z"/><path class="cls-2" d="M329.5212,173.8945a32.0209,32.0209,0,0,0,0-52.2611h23.8362v52.2611Z"/><path class="cls-2" d="M279.6193,147.76a31.91,31.91,0,0,0,13.5134,26.1265h-23.862v-52.253h23.862A31.91,31.91,0,0,0,279.6193,147.76Z"/><path class="cls-2" d="M337.265,147.747a25.9518,25.9518,0,1,1-25.9513-26.1082A26.03,26.03,0,0,1,337.265,147.747Z"/><path class="cls-1" d="M323.4858,148.832l-.0148-.0271-.0021-.0047c-.0088-.0271-.0155-.0555-.025-.0853l-.0013-.002-.0014-.002-.0013-.0027-.0007-.002-.0014-.0021-.0013-.0027-.0027-.004a5.3333,5.3333,0,0,0-1.7329-2.6095l-.0014-.002c-.0243-.019-.05-.04-.0744-.0589l-.0338-.025-.0243-.0189-.0109-.0088-.023-.0163-.01-.0088-.0237-.0162-.01-.01-.0244-.0182-.0128-.0075-.0244-.0189-.0128-.0074-.0271-.0176-.0128-.0075-.0156-.0237-.0135-.01-.0271-.0169-.0135-.01-.0271-.0176-.0135-.01-.027-.0176-.0136-.01-.0284-.02-.0135-.01-.03-.0183-.0136-.01-.03-.0183-.0135-.01-.0305-.0183-.0142-.0094-.03-.019-.0163-.0081-.03-.0189-.0156-.0088-.0324-.0169-.0163-.0088-.0338-.02-.0162-.0082-.0332-.02-.0162-.0088-.0338-.02-.0176-.0108-.0331-.02-.0176-.01-.0359-.0182-.0169-.0109-.0358-.0182-.0244-.0129-.0013-.002c-.0169-.0108-.0359-.0189-.0528-.03a7.3741,7.3741,0,0,0-2.37-.7534,6.6032,6.6032,0,0,0,.6351-.8022l.03-.0453.0021-.0014.0142-.0223.0182-.03.01-.0142.0182-.03.01-.0142.0183-.03.0094-.0142.0183-.03.01-.0142.0183-.03.01-.0142.0163-.0291.0094-.0142.0163-.0291.0074-.0128.0162-.0291.0075-.0129.0162-.0284.0075-.0128.0142-.0284.0074-.0129.0142-.0277.0075-.0129.0142-.0277.0074-.0128.0149-.0257.0074-.0129.0156-.0257.0074-.0122.0129-.0243.0074-.0129.0129-.0243.0054-.0122.0128-.0243.0054-.0115.0129-.0244.0054-.0115.0128-.0243.0055-.0115.01-.023.0054-.0115.0108-.0237.0054-.0115.01-.023.0054-.0115.0122-.0271.0155-.0345c.0122-.0263.021-.052.0332-.0784l.002-.0014a4.7639,4.7639,0,0,0,.2394-2.7812l-.0013-.0021-.0027-.0047-.0007-.002-.0013-.0027-.0014-.0021-.0014-.0027-.0013-.002-.0014-.002a.7224.7224,0,0,0-.0182-.0778v-.0054l-.0014-.0021-.0013-.0027-.0007-.002.0007.002-.01-.02c-.0081-.0359-.0155-.0724-.027-.11-.0081-.0365-.02-.0744-.03-.1089l-.0128-.025-.0027-.0041-.0224-.0751-.0013-.002-.0014-.0027-.0013-.002-.0014-.0021-.0013-.0027-.0014-.002-.0007-.0027a4.7382,4.7382,0,0,0-1.5421-2.3207l-.0014-.0027c-.0209-.0176-.0439-.0338-.0649-.0514l-.0291-.0223-.023-.0162-.0108-.0088-.02-.0156-.0108-.0088-.02-.0155-.01-.0088-.02-.0136-.0108-.0087-.023-.0163-.0108-.0088-.023-.0162-.01-.0088-.0236-.0169-.0129-.0074-.023-.0163-.0122-.0074-.0236-.0169-.0129-.0075-.025-.0148-.0129-.0082-.0257-.0148-.0128-.0075-.025-.0155-.0129-.0075-.0257-.0155-.0128-.0075-.0264-.0176-.0129-.0074-.027-.0176-.0122-.0074-.0291-.0163-.0128-.0074-.0291-.0162-.0136-.01-.029-.0162-.0142-.01-.0284-.0162-.0142-.0095-.03-.0189-.0162-.0081-.03-.019-.0162-.0081-.0325-.0176-.0162-.0088-.0318-.0169-.023-.0108-.0014-.002-.0487-.0264a7.0783,7.0783,0,0,0-5.0288-.4958l-.4715.1218L310.2194,131.4l-2.7624.7123,1.1884,4.6507-2.21.57-1.1884-4.6379-2.7623.7129,1.1884,4.6508-5.6965,1.4745.7582,2.9632,2.295-.5925a1.4146,1.4146,0,0,1,1.0774.1535,1.4289,1.4289,0,0,1,.6527.8759l3.1858,12.4691a.956.956,0,0,1-.6825,1.1613l-2.0108.5208.1183,3.524,5.689-1.4705,1.204,4.642,2.76-.7142-1.1891-4.6529,2.2091-.57,1.19,4.6528,2.76-.7143-1.1931-4.6717c.4681-.1225.87-.2273,1.1485-.3a8.0174,8.0174,0,0,0,4.6914-3.2337l.0338-.05.0027-.0013.0162-.0237.0217-.0345.01-.0176.0216-.0352.0109-.0169.02-.0338.01-.0176.02-.0338.0088-.0162.019-.0339.0088-.0162.0189-.0338.0088-.0162.0176-.0325.0081-.0162.0176-.0325.0081-.0162.0189-.0305.0082-.0162.0182-.03.0088-.0163.0162-.0291.0088-.0162.0163-.0291.0081-.0162.0162-.0291.0068-.0156.0162-.029.0061-.0149.0142-.0278.0075-.0128.0135-.0277.0081-.0129.0135-.0284.0075-.0128.0142-.0278.0074-.0128.0142-.0278.0075-.0128.0135-.0277.0081-.0129.0115-.0271.0074-.0128.0115-.0264.0054-.0115.0129-.03.0169-.0379c.0129-.03.0271-.0582.0372-.0872l.0007-.0034a5.3656,5.3656,0,0,0,.27-3.1276l-.0007-.0027-.0014-.002-.0013-.0027-.0014-.0021-.0013-.0027-.0014-.002-.0007-.002-.0013-.0027c-.0068-.0278-.0135-.0562-.02-.0846v-.0061l-.0014-.002-.0013-.0027-.0014-.002-.0007-.0027-.0013-.0021-.0014-.002-.0013-.0027-.0014-.002-.0006-.0021-.0014-.0027-.0014-.002-.0013-.0027-.0014-.002-.0047-.0088c-.01-.0413-.0183-.0832-.03-.1225C323.494,148.9226,323.4886,148.8793,323.4858,148.832ZM307.2575,140.49c.4714-.1217,2.4194-.6142,3.062-.7819a4.1359,4.1359,0,0,1,2.8137.22l.0264.0115.0115.0054.0162.0088.0081.0041.0163.0088.0081.0047.0162.0081.0081.0048.0163.0088.0081.004.0162.0088.0081.0041.0163.0088.0081.004.0162.0088.0081.0048.0163.0081.0081.0047.0162.0081.0081.0048.0142.0094.0081.0048.0136.01.0081.0041.0142.01.0081.0041.021.0121.0121.0075.0082.004.0128.0082.0081.004.0338.02.0061.0054.0129.0075.0047.0034.0122.0074.0047.0034.0129.0074.0047.0034.0129.0081.0047.0034.01.0088.0048.0027.0128.0081.0176.01c.0129.0081.0244.0189.0372.0263a2.4038,2.4038,0,0,1,.8441,1.2168l.0034.0068.0129.04.0007.0021.0074.0135c.0054.02.0115.0372.0169.0575a.3319.3319,0,0,1,.01.0636l.0075.0135.0013.0027a.22.22,0,0,0,.01.0406l.004.0067a2.42,2.42,0,0,1-.1576,1.4745l-.0182.042-.01.02-.0074.0128-.0021.0068-.0054.0115-.002.0068-.0074.0128-.0021.0068-.0074.0128-.002.0068-.0081.0128-.0021.0075-.0074.0122-.002.0074-.0075.0122-.002.0074-.0075.0122-.004.0088-.0081.0122-.0041.0087-.0074.0129-.0048.0081-.0074.0129-.0041.0081-.01.0135-.0041.0088-.01.0135-.0041.0081-.01.0143-.0041.0081-.0094.0142-.0048.0081-.0094.0135-.0048.0088-.01.0135-.0047.0082-.01.0142-.0047.0081-.01.0142-.004.0081-.0122.0149-.0047.0081-.0115.0156-.0048.0081-.0121.0155-.0041.0081-.0122.0149-.0088.0108-.0162.023a4.1508,4.1508,0,0,1-2.3612,1.5577c-.6439.1658-2.5872.6784-3.0586.8Zm10.7963,9.5606.0082.0162c.0027.0156.0067.0278.0094.044l.0021.0047.0027.0048a2.4861,2.4861,0,0,1-.2219,1.6111l-.025.0453-.0115.021-.0088.0162-.0047.0082-.0075.0128-.004.0081-.0075.0129-.0047.0081-.01.0142-.0047.0081-.01.0142-.004.0081-.01.0142-.004.0082-.01.0135-.004.0088-.01.0135-.004.0081-.01.0142-.0041.0081-.01.0142-.0041.0082-.01.0142-.0041.0081-.0094.0135-.0048.0081-.0121.0156-.0041.0081-.0122.0156-.004.0081-.0109.0169-.004.0088-.0108.0169-.0041.0081-.0108.0176-.0061.01-.0108.0175-.0061.0088-.0135.019-.0061.0094-.0136.019-.006.0088-.0136.0189-.0061.01-.0135.0182-.0061.01-.0135.0189-.01.0115-.021.0257a5.2234,5.2234,0,0,1-2.82,1.7566c-.7616.1982-3.0647.8035-3.6247.9476l-1.5679-6.1368c.5594-.1461,2.8686-.7291,3.6308-.9266a5.2084,5.2084,0,0,1,3.3116.17l.03.0128.0149.0068.0216.0088.01.0027.02.0094.0108.0034.02.01.01.0034.02.0094.0081.0048.02.0094.0074.0041.02.01.0081.0047.02.01.0081.0047.0162.0081.0082.0048.0162.0088.0081.004.0162.0088.0082.0041.0162.0088.0081.004.0162.0088.0082.0047.0162.0082.0081.0047.0162.0081.0082.0048.0162.0087.0081.0041.0162.0088.0082.004.0135.01.0081.0041.0142.01.0081.0041.0142.01.0081.0041.0136.01.0081.0047.0142.01.0081.0047.0122.0075.0081.004.0142.01.0189.0128c.0136.01.03.019.044.0285a2.4769,2.4769,0,0,1,.9659,1.3047l.0047.0088c.0054.0149.0088.027.0135.0419l.0014.0027.0074.0135c.0048.02.01.0406.0163.0636.01.0021.0121.0271.0081.0582Z"/><path d="M506.4105,202.0048v3.1607c-3.16.6162-4.1618,3.3143-4.1618,6.32a20.1762,20.1762,0,0,0,1.31,6.9369l22.9691,64.3609,13.7975-37.4606-10.7146-32.7577c-1.6957-5.4726-4.393-7.0918-8.0157-7.4v-3.1607h51.7964v3.1607c-7.2454.2313-10.791,1.31-10.791,6.0117a23.5363,23.5363,0,0,0,1.6186,7.2453l20.8115,63.2814,12.1782-39.0014c2.8516-9.3266,4.1624-16.4948,4.1624-22.0445,0-11.0223-5.2419-15.1847-13.6432-15.4925v-3.1607h32.8355v3.1607c-4.9328,2.389-10.56,8.5555-14.7221,22.121l-26.5147,86.4818h-16.572l-20.503-62.6645-22.2752,62.6645h-16.572l-36.6123-98.5058c-2.6163-7.0276-6.8984-9.9434-9.7555-10.2525-.2962,6.0562-.93,19.4925-.93,23.51a113.9926,113.9926,0,0,0,.462,11.4071h-3.6227c-3.9311-26.2056-16.1086-34.3-29.0586-34.3h-2.08c-8.1707,0-9.635,1.3108-9.635,9.9434V255.96h1.6185c11.87-.0006,19.5778-11.6384,21.5048-20.8108h3.6227c-.4626,6.937-.6169,11.6391-.6169,15.3383,0,2.698.0772,4.8564.0772,7.0918,0,5.1641.2313,10.4054,1.0023,22.4294H435.758c-1.927-11.7156-10.0977-20.8873-21.9675-20.8879H412.172v41.0825c0,8.71,1.4643,9.9428,9.635,9.9428h5.2412c10.4061,0,23.9709-8.8646,29.0586-37.3828H459.73c-.3084,3.7776-.4626,8.7869-.4626,14.4908,0,5.2338,1.0761,26.4545,1.0788,26.5147H368.9311v-3.16c9.635-.4626,11.2536-2.0812,11.2536-13.5654V218.731c0-11.4849-11.2536-13.5655-11.2536-13.5655l-.2246.0494c-9.4307,2.1056-10.7253,6.872-10.7253,24.5383v84.0151H346.8818l-69.91-76.3842V282.86c0,21.12.9246,25.6672,15.9551,27.7484v3.16s-30.9708.0676-30.8314,0a23.797,23.797,0,0,0,0-3.16c9.635-2.0812,11.2536-6.7827,11.2536-24.5877v-67.29c0-11.4849-1.5239-13.0494-11.0047-13.512v-3.2142H289.767l64.5144,68.2142V232.9133c0-21.1193-.9253-25.6672-15.878-27.7478v-3.1607Z"/><path d="M654.4326,199.77c-20.3489,0-39.0785,9.1723-39.0785,29.8289,0,17.42,13.1035,26.5147,28.0562,36.5353,13.4119,8.9411,23.0463,16.572,23.0463,29.6748,0,9.7892-7.3989,15.416-18.9609,15.416-20.1947,0-27.44-19.8862-28.6731-42.1621H615.2c0,27.0545-.2313,37.7683-.694,45.7848h3.6227c.694-4.548,1.4651-6.937,3.5456-6.937,1.2337,0,2.7752.6162,5.3184,2.2348,5.8581,2.8523,13.5661,5.8581,27.98,5.8581,23.0463,0,42.9325-9.9427,42.9325-31.294,0-17.1881-11.562-25.8979-25.59-35.6871C652.4285,235.1487,644.49,230.4472,644.49,218.731c0-9.4808,6.86-14.645,16.1093-14.645,16.4178,0,26.3605,18.4219,27.5165,35.8413h3.6226c0-23.7395.3085-31.756.7711-38.5387h-3.6227c-.6168,4.5473-1.3872,6.937-3.4684,6.937-1.4644,0-2.8523-.7711-5.3955-2.2355C674.7043,203.0843,668.0758,199.77,654.4326,199.77Z"/><text class="cls-3" transform="translate(179.7652 394.1914)"><tspan class="cls-4">H</tspan><tspan x="28.1157" y="0">el</tspan><tspan class="cls-5" x="57.4556" y="0">p</tspan><tspan x="78.8037" y="0">! I ca</tspan><tspan class="cls-6" x="155.9854" y="0">n</tspan><tspan x="177.2261" y="0">’</tspan><tspan class="cls-7" x="186.334" y="0">t</tspan><tspan x="198.7539" y="0" xml:space="preserve"> access </tspan><tspan class="cls-8" x="321.2954" y="0">m</tspan><tspan class="cls-9" x="353.4795" y="0">y</tspan><tspan x="371.1553" y="0"> </tspan><tspan class="cls-10" x="379.543" y="0">B</tspan><tspan x="403.6621" y="0">i</tspan><tspan class="cls-11" x="415.002" y="0">t</tspan><tspan x="427.5303" y="0">coin Cash!</tspan><tspan class="cls-12" x="-22.3936" y="43.2002">K</tspan><tspan x="2.7344" y="43.2002">e</tspan><tspan class="cls-13" x="20.8784" y="43.2002">o</tspan><tspan class="cls-14" x="40.8579" y="43.2002">k</tspan><tspan class="cls-15" x="61.0898" y="43.2002">e</tspan><tspan x="79.0181" y="43.2002">n, </tspan><tspan class="cls-16" x="119.2656" y="43.2002">N</tspan><tspan class="cls-13" x="144.5376" y="43.2002">e</tspan><tspan class="cls-9" x="162.3218" y="43.2002">w</tspan><tspan class="cls-17" x="189.6455" y="43.2002"> </tspan><tspan class="cls-18" x="197.2051" y="43.2002">T</tspan><tspan class="cls-19" x="219.7773" y="43.2002">o</tspan><tspan class="cls-17" x="239.7573" y="43.2002">k</tspan><tspan class="cls-15" x="259.9888" y="43.2002">e</tspan><tspan x="277.917" y="43.2002">n </tspan><tspan class="cls-13" x="308.4087" y="43.2002">P</tspan><tspan class="cls-20" x="331.1245" y="43.2002">lat</tspan><tspan class="cls-21" x="373.6396" y="43.2002">f</tspan><tspan x="385.6631" y="43.2002">orm Launches</tspan><tspan class="cls-4" x="-16.3799" y="86.3999">H</tspan><tspan x="11.7358" y="86.3999">ones</tspan><tspan class="cls-5" x="88.9551" y="86.3999">t</tspan><tspan x="101.375" y="86.3999" xml:space="preserve"> Cash del</tspan><tspan class="cls-22" x="251.5645" y="86.3999">i</tspan><tspan class="cls-23" x="262.7598" y="86.3999">v</tspan><tspan class="cls-24" x="280.5078" y="86.3999">e</tspan><tspan x="298.4355" y="86.3999">rs on </tspan><tspan class="cls-16" x="391.0986" y="86.3999">N</tspan><tspan class="cls-25" x="416.3701" y="86.3999">e</tspan><tspan class="cls-9" x="434.1533" y="86.3999">w</tspan><tspan x="461.4766" y="86.3999"> </tspan><tspan class="cls-19" x="469.8643" y="86.3999">P</tspan><tspan x="492.5801" y="86.3999">lat</tspan><tspan class="cls-26" x="535.0947" y="86.3999">f</tspan><tspan x="547.1191" y="86.3999">orm</tspan></text><text class="cls-3" transform="translate(58.6707 80.6943)"><tspan class="cls-15">T</tspan><tspan x="23.832" y="0">he La</tspan><tspan class="cls-22" x="112.8945" y="0">t</tspan><tspan x="125.4224" y="0">es</tspan><tspan class="cls-5" x="160.1982" y="0">t</tspan><tspan x="172.6182" y="0" xml:space="preserve"> ...</tspan></text></svg>